PathFileType	4	(X/Y/Z)	RBDS014\RBDS014runT45.trc
DataRate	CameraRate	NumFrames	NumMarkers	Units	OrigDataRate	OrigDataStartFrame	OrigNumFrames
150.000000	150.000000	4	32	mm	150.000000	1687	4500
Frame#	Time	L.ASIS			L.Heel.Bottom			L.Heel.Lateral			L.Heel.Top			L.Iliac.Crest			L.MT1			L.MT5			L.PSIS			L.Shank.Bottom.Lateral			L.Shank.Bottom.Medial			L.Shank.Top.Lateral			L.Shank.Top.Medial			L.Thigh.Bottom.Lateral			L.Thigh.Bottom.Medial			L.Thigh.Top.Lateral			L.Thigh.Top.Medial			R.ASIS			R.ASY			R.Heel.Bottom			R.Heel.Lateral			R.Heel.Top			R.Iliac.Crest			R.MT5			R.PSIS			R.Shank.Bottom.Lateral			R.Shank.Bottom.Medial			R.Shank.Top.Lateral			R.Shank.Top.Medial			R.Thigh.Bottom.Lateral			R.Thigh.Bottom.Medial			R.Thigh.Top.Lateral			R.Thigh.Top.Medial			
		X1	Y1	Z1	X2	Y2	Z2	X3	Y3	Z3	X4	Y4	Z4	X5	Y5	Z5	X6	Y6	Z6	X7	Y7	Z7	X8	Y8	Z8	X9	Y9	Z9	X10	Y10	Z10	X11	Y11	Z11	X12	Y12	Z12	X13	Y13	Z13	X14	Y14	Z14	X15	Y15	Z15	X16	Y16	Z16	X17	Y17	Z17	X18	Y18	Z18	X19	Y19	Z19	X20	Y20	Z20	X21	Y21	Z21	X22	Y22	Z22	X23	Y23	Z23	X24	Y24	Z24	X25	Y25	Z25	X26	Y26	Z26	X27	Y27	Z27	X28	Y28	Z28	X29	Y29	Z29	X30	Y30	Z30	X31	Y31	Z31	X32	Y32	Z32	

1688	11.24666666666667	2256.539317890492	1030.069882749333	954.6931986254772	1544.884955937511	657.5793541106837	1060.833702208447	1549.538244779249	634.9219657034888	1014.13268280713	1587.490458749875	631.8523800822934	1050.446099595781	2210.936639498599	1104.109708089713	917.4596032494652	1483.888794160833	425.4196029169658	1073.273142965999	1471.080802570572	484.2021164857958	967.0185500417515	2074.920610854711	1065.851441746544	1007.48915401134	1674.288577589199	560.4757571384401	970.8742254792819	1679.958194839344	600.9063838105471	1008.613401799433	1752.928851828123	564.7959316031548	955.1958957768076	1759.294908754674	603.7025762619229	991.4681430379467	2083.331988510591	648.9847905437479	907.0947220614909	2029.30561330068	662.1618457454647	954.6402483314384	2094.098014142866	758.3516538013486	894.3833217111069	2045.941188004809	770.738675098911	942.4940190350661	2235.988291936491	1060.242066073591	1192.450197052737	2465.078703298547	94.25192540293071	1116.399283259844	2275.548322922653	25.04599431052242	1082.035733941244	2293.763512118379	43.36430967215117	1124.692622310667	2282.768990122364	75.47422707181525	1085.791929224622	2163.831817954139	1123.354134331055	1219.56317434457	2464.167986101514	37.75629484066127	1180.389712991876	2068.896693351391	1080.190066190195	1100.247981425705	2333.433440351978	176.4856633435591	1160.759317921445	2303.316814532353	187.9969216454163	1120.892337747875	2329.767535555542	257.2660947061118	1185.462015704264	2297.091920725812	264.9663472424419	1143.908954647562	2324.680873263649	685.3747653735113	1238.689936526032	2268.759733350206	652.0397259861051	1205.679723698379	2261.133937392212	772.4772128707806	1254.791133846899	2207.841386409779	741.9114824526177	1222.536749673595	
1689	11.25333333333333	2255.723286780463	1024.100301581489	955.2623961574136	1564.459971075873	664.5547766506646	1061.077677991022	1569.479507001191	642.3688631729863	1014.173502567318	1606.907030510245	638.3908794376561	1050.938001365118	2210.636441048572	1097.284182708854	916.3934030798963	1500.400798650092	432.815895725672	1070.123272190337	1489.691238272772	493.1202325136588	964.3722924877501	2073.113533893174	1058.999765090071	1005.842277325211	1692.786334257426	563.9019003165231	970.5707209329905	1700.026840966604	604.0406486053503	1008.397009411467	1771.592895176035	565.3485576448811	954.9379770949174	1779.440401969488	603.8579689132063	991.2476555176106	2093.237600273482	640.6879240004067	907.3434501320429	2038.493892851189	652.0408682938461	954.4374783223607	2100.663540475263	750.2757483522037	894.643574555656	2051.710350784683	761.1273489744793	942.2701964679078	2233.53792865088	1056.846254247229	1193.803016666416	2438.76102209924	89.65248383541055	1114.789600884551	2245.746641122135	26.95348868074083	1081.34359514046	2264.625661541158	45.51326938642525	1123.679821732036	2254.851883498324	77.52059382306379	1084.228910306568	2161.330614135665	1117.278841519581	1219.907610586858	2435.376614003284	34.63704796456681	1180.360550297033	2066.586125693607	1074.93464937621	1098.274242680735	2312.478379132972	176.5205395049358	1159.919847867356	2282.804041597446	189.7357849021894	1120.217616688896	2312.843277122311	257.244587719762	1185.276576174976	2280.649755121608	266.768354373562	1143.814595678929	2321.020520894193	682.713234627967	1240.376541539417	2265.183033268144	649.6072262022881	1206.905129930205	2257.546392798146	770.1398375462143	1255.981980133557	2204.384068160455	739.6693375919814	1223.252663462792	
1690	11.26	2254.444439174342	1018.230198512406	955.9626615020928	1583.83395016723	669.6215000911347	1060.671032920827	1589.591022959777	647.842831357768	1013.670835967034	1626.351672896295	643.3829871270153	1051.005964949908	2209.750581996017	1090.721763301099	915.1917585831033	1518.758300791823	438.0625601880487	1067.027584257552	1509.984059790894	499.3333930334359	961.5676394992282	2070.974312468801	1052.832868547746	1003.98479143438	1712.123318772532	566.142973382123	970.1579781932933	1720.68995326936	605.9973532101827	1008.06401017425	1791.036112260148	565.0374358457203	954.7014363663966	1800.11280107711	603.1978177305288	990.9915220028877	2103.781312796853	632.9606588623438	907.6830980988791	2048.151273566594	642.3564607010949	954.0143760186668	2107.627100399353	742.6676599598781	894.9119892217898	2057.740137508255	751.8589623921908	941.8045460230508	2230.894498538523	1054.128331890291	1195.074109167715	2411.215071682972	86.49740981401764	1113.289396033981	2215.617153764073	28.83755825463736	1080.767991657507	2235.024985729393	47.76450968564124	1122.799451448754	2226.135798522575	79.52676868761642	1082.860674243554	2158.486029662242	1111.813842958007	1220.161255944337	2405.941333879971	32.84957939825018	1180.296415268591	2064.103310116529	1070.339725407325	1096.168507163226	2290.33347276643	177.2295057785895	1159.201407673772	2261.269338049147	192.1385584088856	1119.595687794786	2294.693073601414	257.7654026687574	1185.154825130088	2263.159811052617	269.0785549211748	1143.702104712964	2316.443172593447	680.0935707067813	1242.055637278611	2260.639346417167	647.4291396836284	1208.01540006655	2253.351879372503	768.0408143169859	1257.146853840849	2200.240154682451	737.8828081911178	1223.871045256633	
1691	11.26666666666667	2252.734916870626	1012.647917711448	956.7685298569495	1602.875980447416	672.8240997716164	1059.472502954242	1609.700627881227	651.3276631723693	1012.510207366298	1645.678446026446	646.8290035571439	1050.522367895469	2208.212443371874	1084.655627012295	913.8861521111842	1538.66504397785	441.1565259696545	1064.121255263259	1531.653628234758	502.7623200633092	958.6931991456701	2068.579433401274	1047.556514503688	1002.020607878319	1732.161927669981	567.2255237129068	969.6152015822009	1741.771955647589	606.8237089856871	1007.598620787162	1811.155893027792	563.937747391025	954.4995685026792	1821.179184415296	601.8189281606078	990.7256215768839	2114.987625175579	625.9932616097927	908.139335748922	2058.352474696007	633.2646411060713	953.4432577184001	2114.981894022377	735.7038311535157	895.2379209933388	2064.071113326015	743.0704100487002	941.1835299218093	2228.192433864808	1052.13509378705	1196.188710690071	2382.718671663163	84.57818596080283	1112.036173732992	2185.403163607915	30.54401091824629	1080.371049985758	2205.203207756176	49.90707709718099	1122.131272747054	2196.891958243459	81.33451065044349	1081.788552413945	2155.422128988132	1107.221338943282	1220.276432667112	2376.121526578265	32.11712553986633	1180.270966926612	2061.559664028776	1066.538065051099	1094.052053487876	2267.126268826806	178.3251904935418	1158.693993187654	2238.812565276787	194.8656983535486	1119.124940671939	2275.350527675105	258.5421865622656	1185.152628016552	2244.616521142621	271.5612005206982	1143.64538479872	2310.81813987753	677.3915536804276	1243.656364861223	2254.949422050883	645.4124072588153	1209.011280438096	2248.519654464925	766.0932147617682	1258.23503451642	2195.33445189626	736.5065069301735	1224.405703286636	
